<?xml version="1.0" standalone="no"?>
<!DOCTYPE svg PUBLIC "-//W3C//DTD SVG 20010904//EN"
 "http://www.w3.org/TR/2001/REC-SVG-20010904/DTD/svg10.dtd">
<svg version="1.0" xmlns="http://www.w3.org/2000/svg"
 width="600.000000pt" height="600.000000pt" viewBox="0 0 600.000000 600.000000"
 preserveAspectRatio="xMidYMid meet">
<metadata>
Created by potrace 1.11, written by Peter Selinger 2001-2013
</metadata>
<g transform="translate(0.000000,600.000000) scale(0.100000,-0.100000)"
fill="#000000" stroke="none">
<path d="M361 5981 c-10 -13 -10 -13 -5 -1 4 8 -6 4 -22 -10 -15 -14 -22 -17
-15 -7 13 17 13 17 -12 6 -15 -7 -27 -16 -27 -21 0 -5 -4 -7 -9 -3 -5 3 -16
-1 -24 -9 -8 -8 -17 -12 -21 -9 -3 4 -6 -1 -6 -10 0 -9 -3 -16 -7 -14 -5 1
-18 -7 -30 -18 -12 -11 -29 -26 -38 -33 -8 -7 -13 -17 -10 -23 4 -5 0 -9 -7
-9 -7 0 -19 -9 -26 -21 -11 -17 -11 -20 0 -14 7 3 4 -1 -6 -9 -11 -9 -16 -16
-10 -16 5 0 5 -3 -1 -8 -19 -13 -34 -50 -30 -71 2 -12 0 -19 -5 -16 -5 3 -11
1 -15 -5 -3 -5 -1 -10 6 -10 9 0 9 -3 0 -14 -9 -10 -9 -16 -1 -21 7 -4 8 -11
2 -18 -12 -16 -10 -5207 2 -5226 6 -9 5 -12 -1 -8 -5 3 -10 0 -10 -8 0 -8 4
-12 8 -10 4 3 10 -2 13 -11 4 -10 2 -13 -7 -8 -8 6 -8 3 1 -9 8 -9 11 -20 8
-25 -3 -5 4 -18 14 -30 11 -12 20 -27 20 -35 0 -7 3 -17 8 -21 4 -4 8 -12 8
-17 1 -5 2 -12 3 -15 0 -4 7 -1 15 5 12 10 14 8 12 -13 -2 -19 1 -24 16 -21
10 2 16 0 13 -6 -4 -5 -1 -9 5 -9 6 0 8 -4 5 -10 -3 -5 -1 -10 6 -10 6 0 22
-11 35 -25 15 -16 29 -23 40 -18 12 4 15 3 10 -5 -5 -8 0 -12 14 -12 12 0 19
-4 16 -8 -5 -9 3 -11 59 -14 19 -1 32 -5 29 -10 -3 -4 5 -9 18 -9 103 -6 5159
-3 5181 2 16 5 27 4 27 -2 0 -6 5 -7 10 -4 6 4 8 10 5 15 -3 5 0 12 6 16 7 4
9 3 5 -4 -3 -6 -2 -13 4 -17 5 -3 10 0 10 7 0 9 12 14 33 14 20 0 31 4 29 12
-2 11 18 17 41 13 4 -1 10 6 13 14 4 8 12 15 20 15 8 0 14 7 14 16 0 14 3 14
15 4 13 -11 14 -10 10 2 -4 9 1 18 10 22 9 3 13 11 9 18 -5 8 -2 9 12 4 10 -4
15 -4 11 0 -3 4 2 14 12 23 10 9 17 24 15 34 -1 10 3 16 9 14 18 -6 36 35 23
52 -8 11 -8 13 0 8 14 -8 24 14 24 56 0 24 3 28 10 17 6 -9 10 -10 10 -3 0 6
-5 15 -10 18 -8 5 -8 11 -1 19 7 9 7 17 -2 26 -9 10 -9 11 1 6 7 -5 12 -1 12
9 0 10 -5 13 -12 9 -10 -6 -10 -4 -2 7 12 16 13 137 1 156 -4 6 -3 14 1 17 12
7 13 74 1 81 -7 5 -6 12 2 21 8 10 9 18 0 27 -6 8 -7 17 -3 21 12 12 11 160
-2 175 -8 11 -8 13 1 8 13 -8 13 40 -1 62 -6 9 -5 12 1 8 15 -9 14 64 0 82 -9
12 -9 13 1 7 6 -4 12 -2 12 3 0 6 -6 11 -12 11 -9 0 -10 3 -2 8 14 9 17 79 3
87 -6 4 -6 12 -1 18 12 16 13 55 1 62 -5 4 -6 12 -2 18 11 18 12 70 2 84 -6 6
-6 14 -1 17 12 7 13 74 1 81 -7 5 -6 12 2 21 9 11 9 17 0 28 -7 8 -8 17 -3 20
11 7 10 116 -1 133 -4 6 -3 14 2 17 4 3 9 17 9 31 0 14 -5 28 -9 31 -5 3 -6
11 -2 17 13 20 13 90 0 106 -9 11 -9 13 0 8 13 -8 13 40 -1 62 -6 9 -5 12 1 8
15 -9 14 64 0 82 -9 12 -9 13 1 7 6 -4 12 -2 12 3 0 6 -6 11 -12 11 -9 0 -10
3 -2 8 15 9 15 113 1 131 -9 11 -9 13 0 8 13 -8 13 40 -1 62 -6 9 -5 12 1 8
15 -9 14 64 0 82 -9 12 -9 13 1 7 6 -4 12 -2 12 3 0 6 -6 11 -12 11 -9 0 -10
3 -2 8 14 9 17 79 3 87 -6 4 -6 12 -1 18 12 16 13 55 1 62 -5 4 -6 12 -2 18
11 18 12 70 2 84 -6 6 -6 14 -1 17 12 7 13 74 1 81 -7 5 -6 12 2 21 9 11 9 17
0 28 -7 8 -8 17 -3 20 11 7 10 116 -1 133 -4 6 -3 14 2 17 11 7 11 55 0 62 -5
3 -6 11 -2 17 13 20 13 90 0 106 -9 11 -9 13 0 8 13 -8 13 40 -1 62 -6 9 -5
12 1 8 15 -9 14 64 0 82 -9 12 -9 13 1 7 6 -4 12 -2 12 3 0 6 -6 11 -12 11 -9
0 -10 3 -2 8 15 9 15 113 1 131 -9 11 -9 13 0 8 13 -8 13 40 -1 62 -6 9 -5 12
1 8 15 -9 14 64 0 82 -9 12 -9 13 1 7 6 -4 12 -2 12 3 0 6 -6 11 -12 11 -9 0
-10 3 -2 8 14 9 17 79 3 87 -6 4 -6 12 -1 18 12 16 13 55 1 62 -5 4 -6 12 -2
18 11 18 12 70 2 84 -6 6 -6 14 -1 17 12 7 13 74 1 81 -7 5 -6 12 2 21 9 11 9
17 0 28 -7 8 -8 17 -3 20 11 7 10 116 -1 133 -4 6 -3 14 2 17 11 7 11 55 0 62
-5 3 -6 11 -2 17 13 20 13 90 0 106 -9 11 -9 13 0 8 13 -8 13 40 -1 62 -6 9
-5 12 1 8 15 -9 14 64 0 82 -9 12 -9 13 1 7 6 -4 12 -2 12 3 0 6 -6 11 -12 11
-9 0 -10 3 -2 8 15 9 15 113 1 131 -9 11 -9 13 0 8 13 -8 13 40 -1 62 -6 9 -5
12 1 8 15 -9 14 64 0 82 -9 12 -9 13 1 7 6 -4 12 -2 12 3 0 6 -6 11 -12 11 -9
0 -10 3 -2 8 14 9 17 79 3 87 -6 4 -6 12 -1 18 12 16 13 55 1 62 -5 4 -6 12
-2 18 11 18 12 70 2 84 -6 6 -6 14 -1 17 12 7 13 74 1 81 -7 5 -6 12 2 21 8
10 9 18 0 27 -6 8 -7 17 -3 21 12 13 11 126 -2 126 -6 0 -5 4 3 9 12 7 12 13
3 24 -7 7 -9 17 -5 21 15 15 11 38 -5 32 -16 -6 -16 -5 -1 7 14 10 14 14 3 25
-7 7 -10 20 -7 29 5 12 2 15 -9 10 -12 -4 -14 -1 -10 15 3 11 -1 24 -9 29 -12
7 -12 9 1 9 10 0 7 5 -8 16 -12 8 -22 24 -22 35 0 11 -4 17 -10 14 -5 -3 -10
0 -10 7 0 7 -10 24 -21 38 -11 14 -18 19 -14 13 4 -9 1 -11 -10 -7 -9 4 -14 9
-11 11 7 7 -18 32 -26 26 -5 -2 -8 2 -8 10 0 8 -8 14 -17 13 -10 0 -17 5 -15
12 1 8 -2 11 -8 7 -5 -3 -10 0 -10 7 0 10 -3 9 -10 -2 -8 -12 -10 -12 -16 3
-3 9 -14 17 -23 17 -9 0 -23 6 -29 13 -10 9 -554 12 -2646 13 -2368 0 -2635
-2 -2645 -15z m2549 -521 c0 -7 6 -7 19 0 14 7 22 7 26 0 4 -6 12 -7 18 -3 17
11 277 12 277 1 0 -4 5 -8 11 -8 5 0 8 4 5 8 -3 5 1 9 9 9 8 0 12 -4 9 -9 -7
-11 3 -10 29 4 19 10 20 9 10 -3 -10 -13 -5 -15 35 -13 27 1 50 -3 54 -9 6 -9
8 -8 8 2 0 11 3 11 15 1 11 -9 15 -10 15 -1 0 8 6 7 16 -3 17 -18 28 -21 19
-6 -3 6 1 7 9 4 9 -3 16 -11 16 -18 0 -6 5 -4 10 4 5 8 10 10 10 4 0 -5 16
-10 36 -11 20 -1 40 -7 45 -15 7 -10 9 -10 9 2 0 9 3 11 8 4 9 -13 45 -27 37
-14 -3 6 1 7 9 4 9 -3 13 -11 9 -18 -4 -6 1 -5 10 3 13 10 17 10 17 1 0 -10 3
-10 16 0 12 11 15 11 12 0 -2 -10 6 -14 24 -14 16 1 25 -3 21 -9 -4 -6 2 -8
16 -4 15 3 24 0 28 -10 5 -12 7 -12 14 -1 7 10 9 11 9 0 0 -7 5 -10 10 -7 6 3
10 -2 11 -12 0 -16 1 -16 9 2 8 18 9 18 10 -5 1 -14 4 -20 6 -14 6 15 45 5 61
-15 10 -12 12 -13 13 -2 0 11 3 11 15 1 8 -7 15 -9 15 -6 0 4 6 1 14 -6 8 -7
12 -17 9 -21 -3 -5 4 -4 17 3 19 10 22 9 27 -9 3 -12 12 -21 20 -21 8 0 11 5
8 13 -4 6 -1 5 7 -4 19 -23 57 -41 70 -33 7 4 8 3 4 -4 -7 -11 -3 -13 37 -16
6 -1 16 -10 20 -21 7 -16 10 -17 17 -5 9 14 14 7 11 -12 -1 -8 4 -9 39 -12 8
-1 14 -7 13 -14 -3 -11 4 -14 23 -11 4 0 10 -3 13 -8 13 -17 56 -48 46 -33 -6
9 -3 8 7 -2 9 -10 21 -18 27 -18 6 0 11 -4 11 -10 0 -5 7 -10 16 -10 8 0 13
-4 10 -9 -3 -5 1 -12 10 -15 10 -4 13 -2 8 6 -4 7 -3 8 4 4 7 -4 12 -14 12
-21 0 -9 6 -12 17 -8 12 5 14 3 8 -7 -6 -10 -4 -12 9 -7 10 4 15 3 11 -3 -3
-6 1 -13 9 -16 9 -3 13 -10 10 -15 -3 -5 1 -6 9 -3 8 3 17 -2 20 -10 4 -9 14
-16 22 -16 9 0 13 -4 10 -10 -3 -5 1 -10 9 -10 9 0 16 -6 16 -14 0 -7 8 -20
18 -27 16 -13 16 -12 3 6 -9 13 -5 11 11 -5 14 -14 24 -28 21 -32 -2 -4 2 -5
10 -2 8 3 18 0 23 -7 4 -8 3 -10 -4 -5 -7 4 -12 5 -12 1 0 -3 12 -10 26 -15
18 -7 24 -15 20 -27 -6 -13 -4 -14 9 -3 9 7 15 9 14 4 -4 -22 2 -34 18 -34 9
0 14 -3 10 -6 -8 -8 18 -34 33 -34 6 0 9 -4 6 -8 -3 -5 4 -15 15 -22 10 -8 19
-20 19 -28 0 -9 7 -11 23 -7 16 4 18 4 8 -3 -11 -8 -10 -13 8 -28 11 -10 21
-24 21 -31 0 -6 5 -15 12 -19 7 -5 8 -3 3 6 -6 9 -4 11 4 5 7 -4 10 -16 8 -27
-5 -16 -3 -17 9 -7 12 10 13 9 8 -7 -4 -10 -4 -16 1 -12 10 10 34 -22 35 -45
0 -10 3 -16 8 -14 4 3 16 -7 26 -21 12 -16 14 -23 5 -18 -8 4 -6 1 3 -7 10 -8
15 -17 11 -20 -3 -4 1 -7 11 -7 9 0 15 -4 11 -9 -3 -5 1 -16 9 -24 8 -8 12
-17 9 -21 -4 -3 -1 -6 6 -6 7 0 9 -4 6 -10 -5 -9 6 -14 26 -12 3 1 6 -5 6 -13
0 -8 -4 -12 -9 -9 -4 3 -8 0 -8 -5 0 -6 7 -11 16 -11 8 0 12 -4 9 -10 -3 -5
-1 -10 5 -10 6 0 9 -4 5 -9 -3 -5 2 -16 10 -24 8 -9 15 -22 15 -29 0 -7 9 -19
21 -26 17 -11 19 -16 7 -29 -8 -10 -8 -14 -1 -10 11 7 22 -13 27 -49 1 -7 6
-17 11 -21 4 -4 5 -3 1 4 -3 6 -2 14 3 17 5 4 8 -5 6 -19 -1 -14 2 -25 8 -25
5 0 5 -5 -2 -13 -14 -17 -2 -30 15 -16 9 7 12 3 10 -20 -1 -17 3 -32 9 -35 7
-2 12 -19 13 -36 0 -18 6 -38 12 -44 8 -8 10 -6 5 9 -6 18 -6 19 5 2 9 -14 9
-22 -2 -34 -11 -14 -11 -16 1 -8 11 6 13 4 8 -8 -4 -11 -1 -17 8 -17 8 0 15
-5 15 -11 0 -5 -4 -7 -10 -4 -5 3 -3 -10 5 -28 8 -19 11 -38 7 -42 -4 -5 1 -5
11 -2 15 6 16 4 7 -13 -7 -13 -7 -20 -1 -20 6 0 7 -7 4 -17 -5 -12 -3 -14 8
-8 11 7 12 6 3 -6 -14 -18 -14 -49 0 -46 6 1 10 -6 8 -17 -2 -10 1 -15 6 -12
13 8 10 -27 -3 -36 -6 -5 -5 -8 3 -8 7 0 11 -4 7 -9 -3 -5 0 -13 6 -17 8 -4 7
-9 -2 -15 -11 -7 -11 -9 1 -9 11 0 15 -12 15 -48 0 -27 6 -55 14 -65 14 -16
13 -17 -5 -11 -16 7 -17 5 -7 -8 7 -8 10 -18 6 -21 -3 -4 0 -7 8 -7 11 0 11
-2 -1 -10 -10 -6 -11 -10 -2 -10 6 0 12 -5 12 -11 0 -5 -6 -7 -12 -4 -7 4 -4
-1 6 -9 20 -16 20 -16 0 -16 -16 0 -17 -2 -4 -10 8 -5 11 -10 7 -10 -5 0 -5
-6 0 -12 4 -7 7 -31 6 -52 -2 -22 3 -46 9 -53 9 -11 7 -12 -8 -7 -15 6 -17 4
-7 -6 8 -9 9 -19 2 -32 -5 -10 -6 -18 -2 -17 21 3 24 -2 12 -18 -8 -9 -9 -14
-3 -10 6 3 11 0 11 -8 0 -8 -4 -12 -8 -10 -4 3 -9 -2 -12 -10 -4 -9 -1 -12 8
-9 10 4 13 0 10 -16 -2 -13 -7 -25 -10 -28 -2 -3 0 -11 5 -18 8 -8 6 -16 -4
-27 -8 -8 -12 -17 -9 -20 9 -9 9 -96 0 -90 -4 2 -6 -7 -3 -21 3 -19 0 -26 -12
-27 -15 -1 -15 -2 1 -6 18 -5 18 -30 1 -26 -5 1 -7 -19 -5 -44 2 -34 0 -44 -9
-38 -9 6 -9 3 -1 -12 6 -13 7 -23 1 -29 -6 -6 -12 -24 -13 -41 -2 -16 -8 -36
-12 -43 -6 -9 -4 -11 6 -5 11 7 12 6 2 -7 -7 -8 -10 -18 -6 -21 3 -4 1 -7 -6
-7 -9 0 -9 -5 0 -21 8 -15 8 -19 0 -15 -6 4 -11 2 -11 -4 0 -6 -4 -9 -9 -5 -6
3 -6 -6 -1 -25 5 -19 5 -30 -1 -30 -6 0 -7 -4 -4 -10 3 -5 1 -10 -4 -10 -6 0
-11 -13 -11 -30 0 -22 -5 -30 -17 -30 -10 0 -14 -4 -8 -8 14 -10 17 -32 4 -32
-5 0 -7 -4 -4 -10 3 -5 0 -10 -7 -10 -9 0 -9 -3 2 -10 13 -8 12 -10 -2 -10
-10 0 -18 -5 -18 -11 0 -5 6 -7 13 -3 6 4 2 -4 -11 -18 -16 -18 -20 -28 -12
-33 8 -5 6 -11 -6 -19 -9 -7 -14 -18 -10 -24 4 -7 2 -12 -4 -12 -6 0 -8 -5 -4
-12 5 -8 2 -9 -11 -4 -15 5 -16 4 -5 -9 8 -10 9 -15 1 -15 -6 0 -10 -3 -10 -7
3 -21 -2 -33 -12 -27 -6 4 -9 -1 -7 -13 1 -10 -5 -31 -15 -46 -10 -15 -15 -33
-11 -39 4 -7 3 -8 -5 -4 -12 8 -32 -33 -23 -48 3 -5 1 -7 -4 -4 -5 3 -15 0
-22 -8 -8 -9 -9 -14 -2 -14 6 0 8 -5 5 -10 -4 -6 -11 -8 -16 -5 -5 3 -6 -1 -3
-9 3 -9 1 -16 -6 -16 -6 0 -8 -5 -5 -10 3 -5 2 -10 -4 -10 -6 0 -13 -11 -17
-25 -3 -14 -10 -23 -14 -20 -4 3 -11 -7 -14 -20 -4 -14 -10 -23 -15 -20 -5 2
-12 -2 -15 -11 -3 -8 -2 -12 4 -9 6 3 10 1 10 -4 0 -6 -7 -11 -17 -11 -9 0
-14 -3 -10 -6 3 -4 -4 -15 -16 -26 -12 -11 -15 -17 -7 -13 10 4 9 2 -2 -8 -10
-8 -14 -18 -10 -22 4 -5 -1 -5 -11 -2 -10 4 -16 3 -13 -2 3 -5 -1 -11 -9 -15
-9 -3 -12 -12 -9 -21 5 -11 0 -18 -15 -22 -11 -3 -18 -9 -15 -14 3 -5 0 -9 -7
-9 -7 0 -10 -3 -6 -6 8 -8 -26 -42 -37 -36 -5 3 -6 -3 -3 -12 6 -14 3 -17 -8
-12 -9 3 -13 2 -10 -3 3 -5 -4 -16 -15 -24 -11 -7 -17 -17 -12 -22 4 -4 -1 -5
-11 -2 -10 4 -16 3 -12 -2 3 -5 2 -16 -1 -25 -5 -13 -9 -14 -20 -5 -12 10 -13
9 -8 -5 4 -10 0 -18 -10 -22 -9 -3 -13 -10 -10 -15 3 -5 2 -8 -3 -7 -14 5 -55
-30 -49 -41 4 -7 1 -8 -8 -5 -11 4 -16 0 -16 -10 0 -9 -6 -16 -13 -16 -7 0
-24 -13 -38 -29 -21 -24 -29 -27 -39 -18 -10 9 -11 9 -6 0 4 -7 2 -21 -4 -30
-11 -17 -11 -17 -6 0 3 11 2 15 -4 12 -6 -3 -10 -13 -10 -21 0 -8 -4 -13 -9
-10 -4 3 -17 -1 -27 -9 -19 -15 -18 -15 1 -9 11 3 5 -3 -13 -13 -18 -11 -30
-22 -27 -25 3 -3 -1 -8 -10 -12 -11 -4 -14 -2 -10 7 4 6 -2 1 -14 -13 -11 -14
-25 -25 -31 -25 -6 0 -15 -7 -20 -15 -5 -8 -10 -10 -10 -5 0 6 -5 3 -10 -5 -5
-8 -15 -15 -22 -15 -7 -1 -12 -6 -11 -13 2 -6 -4 -9 -12 -6 -8 4 -15 1 -15 -6
0 -7 -7 -10 -16 -6 -8 3 -13 2 -10 -3 3 -5 -1 -12 -10 -15 -8 -3 -12 -2 -9 4
3 6 2 10 -4 10 -10 0 -8 40 3 58 3 6 2 13 -3 16 -5 4 -8 18 -5 32 3 18 1 23
-7 18 -8 -5 -9 -2 -1 12 7 13 7 25 0 37 -7 14 -7 18 2 12 7 -4 10 -1 8 11 -2
11 -10 22 -18 26 -11 5 -10 7 5 7 17 1 17 3 5 11 -11 7 -11 10 -2 10 9 0 10 5
3 18 -7 13 -6 23 2 31 9 10 8 11 -5 6 -17 -7 -19 9 -5 33 5 7 3 12 -5 12 -9 0
-9 3 2 10 13 9 13 10 0 10 -13 0 -13 1 0 11 12 9 13 12 1 16 -11 5 -11 7 0 14
10 6 11 9 2 9 -7 0 -13 5 -13 11 0 5 6 7 13 3 9 -5 9 -4 0 6 -10 11 -10 17 0
29 7 9 7 12 1 8 -8 -4 -11 8 -11 38 0 26 5 45 11 46 6 0 2 4 -9 9 -11 5 -15 9
-9 9 11 1 10 58 -1 89 -2 6 0 12 6 12 6 0 6 7 -1 20 -6 12 -7 20 -1 20 9 0 6
28 -7 60 -9 26 -9 35 6 52 10 12 11 18 1 24 -8 4 -10 3 -5 -4 4 -7 2 -12 -3
-12 -14 0 -14 13 1 28 9 9 9 12 0 12 -7 0 -12 5 -12 11 0 5 5 7 10 4 6 -3 10
-1 10 4 0 6 -4 11 -10 11 -14 0 -12 28 3 33 8 3 6 10 -8 26 -11 12 -15 22 -10
21 24 -5 27 1 9 16 -10 8 -12 12 -4 8 13 -7 13 -5 2 8 -10 13 -10 17 0 20 10
4 10 8 -1 21 -9 12 -10 17 -2 17 9 0 9 5 0 21 -9 17 -8 20 2 14 8 -6 10 -4 4
5 -11 18 -13 150 -3 151 4 1 13 3 18 4 6 1 15 3 21 4 5 0 8 5 5 9 -2 4 5 9 17
9 11 1 25 9 30 18 6 12 12 13 22 5 11 -9 17 -7 27 9 7 12 21 21 30 21 10 0 18
5 18 10 0 6 6 9 13 8 6 -2 11 3 9 11 -3 12 -1 12 13 1 14 -11 16 -11 13 1 -2
8 4 13 15 13 9 -1 17 4 17 12 0 8 6 13 13 12 6 -2 11 5 11 15 -2 14 1 15 12 6
11 -9 14 -9 14 0 0 7 5 9 12 5 7 -5 9 -2 5 9 -4 11 -2 14 8 10 8 -3 18 2 21
11 3 9 10 13 15 10 5 -3 9 2 9 10 0 15 12 21 33 17 5 -1 6 3 2 9 -3 5 -1 10 5
10 6 0 8 5 4 12 -5 8 -2 9 11 4 15 -5 16 -4 5 9 -7 9 -9 15 -4 14 23 -4 36 2
31 15 -3 8 2 16 14 19 18 5 19 9 9 27 -10 18 -9 21 1 15 9 -6 11 -3 6 8 -3 10
-2 17 3 17 6 0 10 13 10 29 0 17 5 33 10 36 6 4 7 12 3 18 -12 20 -14 47 -3
47 7 0 8 7 3 18 -10 22 -10 53 1 71 7 10 5 12 -5 6 -12 -8 -12 -6 0 8 7 9 9
17 4 17 -5 0 -9 9 -9 20 0 11 4 20 8 20 4 0 3 12 -2 26 -13 32 -12 37 0 29 13
-8 8 18 -5 27 -6 5 -4 8 5 8 13 0 13 2 1 9 -12 8 -12 12 -2 25 9 11 10 16 2
16 -13 0 -10 22 4 32 6 5 6 8 -1 8 -6 0 -10 10 -9 23 1 12 -2 27 -7 34 -6 7
-4 14 3 19 8 5 9 3 4 -6 -5 -9 -4 -11 4 -6 9 6 9 11 1 21 -7 8 -9 19 -6 24 4
5 -2 15 -11 21 -16 10 -16 11 4 7 20 -4 21 -3 12 15 -6 11 -8 26 -5 34 3 8 -1
14 -10 14 -8 0 -12 5 -9 10 4 6 10 8 14 6 9 -6 5 53 -5 62 -4 4 -4 -2 0 -13 6
-16 5 -17 -5 -8 -10 10 -9 15 1 28 10 12 10 15 -1 15 -11 0 -11 2 1 10 13 9
13 10 0 10 -13 0 -13 1 0 10 8 5 10 10 5 10 -6 0 -11 17 -10 38 0 20 -4 43 -9
50 -5 7 -5 12 0 12 5 0 9 13 9 29 1 25 -2 28 -14 18 -12 -10 -13 -9 -3 10 14
25 15 36 4 29 -4 -2 -8 6 -8 19 0 13 4 21 8 19 15 -10 8 9 -9 23 -10 8 -12 12
-5 8 15 -7 15 -4 2 30 -7 17 -7 24 0 20 6 -3 10 -4 10 -1 0 2 3 13 6 23 4 13
3 14 -4 5 -7 -11 -10 -11 -15 2 -4 9 -1 16 6 16 8 0 6 4 -3 10 -12 8 -12 10
-1 10 9 0 10 4 4 13 -5 6 -8 25 -7 42 2 16 -1 34 -6 40 -6 7 -7 15 -4 18 10
10 12 67 3 61 -5 -3 -6 -11 -3 -17 4 -7 4 -9 -1 -5 -4 4 -8 35 -8 68 0 37 -4
60 -11 60 -8 0 -8 3 0 8 12 8 14 53 2 46 -4 -3 -8 0 -8 5 0 6 5 11 12 11 9 0
9 3 0 12 -9 9 -9 15 1 27 8 10 8 12 1 8 -7 -4 -15 0 -18 9 -3 8 -2 13 3 10 5
-3 11 1 14 9 4 9 1 12 -9 8 -20 -7 -18 7 4 23 16 12 16 12 -3 11 -16 -2 -20 4
-20 33 0 19 5 38 10 42 6 5 6 8 -1 8 -7 0 -10 13 -8 31 2 16 0 28 -4 25 -4 -2
-5 16 -3 40 2 32 -1 44 -10 45 -8 0 -5 4 6 9 17 7 17 9 3 9 -10 1 -18 8 -18
17 0 8 4 13 9 10 11 -7 9 13 -3 32 -4 7 -5 19 -2 27 3 8 0 15 -7 15 -8 0 -6 4
3 10 11 7 11 10 2 10 -7 0 -10 5 -7 10 4 6 3 19 -1 28 -14 33 -13 44 4 38 13
-5 12 -2 -2 9 -11 8 -14 15 -7 15 7 0 10 4 7 8 -3 5 -25 9 -50 11 -24 1 -54 4
-65 6 -12 2 -21 1 -21 -3 0 -4 -22 -5 -50 -4 -50 4 -59 -3 -50 -43 8 -38 8
-45 0 -40 -11 7 -18 -15 -12 -37 2 -10 9 -15 16 -12 6 3 2 -2 -8 -10 -18 -14
-15 -21 7 -17 12 2 8 -17 -6 -22 -11 -4 -13 -21 -8 -70 1 -5 7 -5 14 -1 9 6 9
5 0 -8 -7 -8 -10 -17 -8 -20 10 -9 14 -49 6 -43 -15 8 -22 -27 -9 -42 9 -11 9
-16 -3 -24 -12 -7 -12 -9 0 -9 8 0 11 -3 8 -6 -3 -4 -1 -16 5 -28 10 -19 9
-19 -5 -8 -13 11 -15 10 -10 -7 3 -12 9 -18 14 -15 5 3 9 0 9 -5 0 -6 -7 -11
-16 -11 -8 0 -12 -5 -9 -10 4 -6 12 -7 18 -3 8 5 8 2 0 -9 -7 -8 -10 -17 -8
-20 10 -9 14 -49 5 -43 -11 7 -18 -15 -12 -37 2 -10 9 -15 16 -12 6 3 2 -2 -8
-10 -18 -14 -15 -21 7 -17 13 2 7 -11 -10 -25 -17 -13 -17 -13 0 -14 17 0 17
-2 3 -15 -17 -17 -11 -49 8 -38 7 4 7 1 -1 -9 -7 -8 -10 -17 -8 -20 10 -9 14
-49 6 -43 -15 8 -22 -27 -9 -42 9 -11 9 -16 -3 -24 -12 -7 -12 -9 0 -9 8 0 11
-3 8 -6 -3 -4 -2 -15 3 -25 7 -13 6 -22 -6 -33 -8 -9 -11 -16 -6 -16 6 0 13
-7 16 -16 4 -10 2 -13 -6 -8 -8 5 -9 1 -4 -12 13 -31 16 -55 6 -49 -11 7 -18
-15 -12 -37 2 -10 9 -15 16 -12 6 3 2 -2 -8 -10 -18 -14 -15 -21 7 -17 13 2 7
-11 -10 -25 -17 -13 -17 -13 0 -14 17 0 17 -2 3 -15 -17 -17 -11 -49 8 -38 7
4 7 1 -1 -9 -7 -8 -10 -17 -8 -20 10 -9 14 -49 6 -43 -13 7 -21 -21 -10 -32
12 -12 21 -55 9 -48 -11 7 -18 -15 -12 -37 2 -10 9 -15 16 -12 6 3 2 -2 -8
-10 -18 -15 -15 -21 8 -17 5 1 4 -4 -3 -13 -8 -9 -8 -16 -2 -20 6 -4 8 -13 5
-21 -4 -8 -11 -12 -16 -9 -6 4 -2 -6 8 -22 13 -19 14 -25 5 -19 -11 6 -13 4
-7 -11 12 -31 16 -55 7 -49 -15 8 -22 -27 -9 -42 9 -11 9 -16 -3 -24 -8 -5 -9
-9 -3 -9 6 0 11 -7 11 -15 0 -8 -5 -15 -11 -16 -6 0 -2 -4 9 -9 11 -5 14 -9 8
-9 -7 -1 -13 -6 -13 -12 0 -5 4 -7 10 -4 6 3 10 1 10 -4 0 -6 -7 -11 -16 -11
-8 0 -12 -5 -9 -10 4 -6 12 -7 18 -4 7 4 2 -3 -10 -14 -13 -14 -29 -20 -40
-16 -15 5 -16 4 -3 -6 13 -9 12 -11 -5 -7 -11 2 -19 9 -17 18 2 8 -8 4 -24
-11 -15 -14 -24 -19 -20 -12 10 17 -21 27 -39 12 -10 -9 -15 -9 -15 -1 0 13
-21 10 -33 -4 -6 -6 -10 -5 -14 4 -5 11 -7 11 -14 0 -7 -11 -9 -9 -9 6 0 17
-2 17 -10 5 -5 -8 -10 -10 -10 -4 0 5 6 16 13 23 7 9 7 11 1 8 -17 -10 -26 21
-10 35 11 11 11 15 -2 24 -12 9 -12 13 -2 19 9 6 11 4 5 -6 -5 -8 -4 -11 0 -6
13 12 14 48 1 38 -8 -7 -11 4 -11 34 0 24 2 43 5 43 18 -1 23 4 11 11 -13 8
-23 70 -11 69 18 -1 23 4 11 11 -13 8 -23 70 -11 69 18 -1 23 4 11 11 -13 8
-23 70 -11 69 18 -1 23 4 11 11 -13 8 -23 70 -11 69 18 -1 23 4 11 11 -13 8
-23 70 -11 69 18 -1 23 4 11 11 -13 8 -23 70 -11 69 18 -1 23 4 11 11 -8 5
-15 23 -15 39 -1 17 2 28 6 26 4 -2 9 0 12 5 3 5 -1 12 -10 15 -15 6 -15 9 2
28 11 12 14 18 8 15 -18 -10 -25 21 -9 37 13 12 12 15 -3 21 -16 6 -16 8 2 21
17 12 16 18 -4 16 -12 -1 -4 60 9 67 10 6 8 10 -6 15 -17 7 -17 8 1 22 17 12
16 18 -4 16 -12 -1 -4 60 9 67 10 6 9 10 -4 15 -9 3 -13 11 -10 17 4 6 14 8
22 5 8 -3 11 -1 8 4 -3 6 -14 10 -23 10 -14 0 -15 2 -3 9 17 11 23 39 11 46
-5 3 -7 -4 -5 -15 2 -11 0 -18 -5 -15 -12 7 -6 35 9 44 10 6 9 10 -4 15 -9 3
-13 11 -10 17 4 6 14 8 22 4 13 -4 14 -3 3 10 -7 8 -15 13 -19 11 -4 -3 -6 9
-6 27 0 17 6 32 13 35 10 3 8 7 -4 16 -13 10 -14 15 -4 21 9 6 11 4 5 -6 -5
-8 -4 -11 0 -6 13 12 14 48 1 38 -8 -7 -11 4 -11 34 0 24 2 43 5 43 18 -1 23
4 11 11 -13 8 -23 70 -11 69 18 -1 23 4 11 11 -13 8 -23 70 -11 69 18 -1 23 4
11 11 -8 5 -15 23 -15 39 -1 17 2 28 6 26 4 -2 9 0 12 5 3 5 -1 12 -9 15 -12
4 -13 10 -5 25 13 26 13 40 -1 21 -8 -11 -12 -12 -16 -2 -2 6 -10 9 -16 5 -6
-3 -28 -7 -49 -8 -32 -2 -38 1 -33 14 3 11 0 10 -10 -3 -8 -11 -15 -15 -15
-10 0 6 -7 11 -15 11 -8 0 -11 -5 -8 -10 4 -6 0 -8 -8 -5 -11 4 -14 -1 -13
-24 1 -16 4 -32 7 -34 3 -3 1 -19 -3 -35 -5 -18 -5 -29 1 -29 6 0 6 -7 0 -18
-7 -13 -6 -23 1 -30 7 -7 8 -12 2 -12 -13 0 -12 -53 1 -62 6 -5 4 -8 -5 -8
-13 0 -13 -1 0 -10 8 -5 11 -10 5 -10 -11 0 -12 -71 -1 -89 4 -6 2 -11 -4 -11
-7 0 -8 -6 0 -19 7 -14 7 -22 0 -26 -8 -5 -7 -11 1 -21 9 -11 9 -14 0 -14 -8
0 -9 -5 -2 -17 5 -10 6 -24 1 -33 -5 -9 -5 -22 0 -29 4 -8 4 -27 0 -42 -5 -18
-5 -29 1 -29 6 0 6 -7 0 -18 -7 -13 -6 -23 1 -30 7 -7 8 -12 3 -12 -6 0 -10
-13 -10 -30 0 -16 4 -30 8 -30 4 0 3 -9 -3 -19 -6 -12 -6 -22 -1 -26 6 -3 6
-17 1 -34 -5 -19 -4 -33 3 -40 8 -8 7 -11 -2 -11 -11 0 -11 -3 -1 -15 7 -9 8
-15 2 -15 -11 0 -11 -18 1 -37 5 -8 3 -13 -4 -13 -8 0 -8 -4 1 -15 7 -8 8 -15
3 -15 -10 0 -9 -47 0 -57 3 -2 1 -18 -3 -34 -5 -18 -5 -29 1 -29 6 0 6 -7 0
-18 -7 -13 -6 -23 1 -30 7 -7 8 -12 3 -12 -6 0 -10 -13 -10 -30 0 -16 4 -30 8
-30 4 0 3 -9 -3 -19 -6 -12 -6 -22 -1 -25 5 -3 5 -21 1 -40 -5 -22 -4 -38 3
-45 6 -6 7 -11 2 -11 -6 0 -10 -13 -10 -30 0 -16 4 -30 8 -30 4 0 3 -8 -2 -19
-6 -10 -8 -21 -4 -24 9 -9 9 -86 1 -80 -5 2 -8 -1 -8 -6 0 -6 6 -11 13 -12 6
0 8 -2 2 -5 -11 -4 -12 -75 -1 -93 4 -6 2 -11 -4 -11 -7 0 -8 -6 0 -19 7 -14
7 -22 0 -26 -8 -5 -7 -11 1 -21 9 -11 9 -14 0 -14 -8 0 -9 -5 -1 -19 11 -22
-2 -37 -22 -25 -10 6 -10 5 -1 -7 9 -11 7 -14 -13 -15 -15 -1 -22 2 -17 10 4
8 2 7 -7 -1 -8 -7 -20 -9 -35 -3 -14 5 -27 4 -34 -3 -8 -8 -11 -7 -12 4 0 9
-4 6 -9 -6 l-9 -20 0 20 c-1 17 -3 17 -11 5 -8 -12 -10 -12 -11 5 l0 20 -9
-20 c-5 -11 -9 -14 -9 -7 -1 6 -6 12 -12 12 -5 0 -7 -4 -4 -10 3 -5 1 -10 -4
-10 -6 0 -11 5 -11 10 0 6 -5 10 -11 10 -5 0 -7 -6 -3 -12 4 -7 3 -10 -1 -6
-14 13 -15 79 -1 71 6 -4 4 1 -4 12 -8 10 -15 19 -15 20 0 1 7 10 15 20 9 11
10 16 3 11 -8 -4 -13 -1 -13 9 0 10 5 13 13 9 8 -5 8 -2 -2 9 -11 14 -11 17 0
17 11 0 11 2 -1 10 -13 9 -13 11 0 20 13 9 13 10 0 10 -13 0 -13 1 0 10 12 8
12 10 1 10 -10 0 -11 3 -2 13 6 8 8 17 4 21 -10 10 -14 48 -5 42 5 -3 9 1 9 9
0 8 -4 12 -9 9 -13 -8 -10 10 5 25 10 11 9 13 -1 7 -14 -8 -12 19 2 43 6 9 5
12 -2 7 -13 -8 -11 52 2 73 6 10 5 12 -2 7 -16 -10 -15 7 1 23 10 11 9 13 -1
7 -14 -8 -12 19 2 43 6 9 5 12 -2 7 -13 -8 -11 52 2 73 6 9 5 12 -1 8 -6 -4
-10 8 -10 28 0 19 3 32 7 30 4 -2 7 2 7 10 0 8 -4 12 -9 9 -13 -8 -9 20 5 35
10 11 10 13 0 7 -8 -5 -13 -1 -13 9 0 10 5 13 13 9 8 -5 8 -2 -2 9 -11 14 -11
17 0 17 11 0 11 2 -1 10 -13 9 -13 11 0 20 13 9 13 10 0 10 -13 0 -13 1 0 10
12 8 12 10 1 10 -10 0 -11 3 -2 13 6 8 8 17 4 21 -4 3 -8 16 -10 27 -2 14 1
18 9 13 10 -5 10 -4 1 6 -9 9 -9 19 -2 33 8 14 8 18 0 13 -13 -8 -10 21 3 43
6 9 5 12 -2 7 -13 -8 -11 52 2 73 6 9 5 12 -1 8 -6 -4 -10 8 -10 28 0 19 3 32
7 30 4 -2 7 2 7 10 0 8 -4 12 -9 9 -13 -8 -9 20 5 35 10 11 10 13 0 7 -8 -5
-13 -1 -13 9 0 10 5 13 13 9 8 -5 8 -2 -2 9 -11 14 -11 17 0 17 11 0 11 2 -1
10 -13 9 -13 11 0 20 13 9 13 10 0 10 -13 0 -13 1 0 10 12 8 12 10 1 10 -10 0
-11 3 -2 13 6 8 8 17 4 21 -10 10 -14 48 -5 42 5 -3 9 1 9 9 0 8 -4 12 -9 9
-13 -8 -10 10 5 25 10 11 9 13 -1 7 -14 -8 -12 19 2 43 6 9 5 12 -2 7 -13 -8
-11 52 2 73 6 9 5 12 -1 8 -6 -4 -10 8 -10 28 0 19 3 32 7 30 4 -2 7 2 7 10 0
8 -4 12 -9 9 -13 -8 -9 20 5 35 10 11 10 13 0 7 -8 -5 -13 -1 -13 9 0 10 5 13
13 9 8 -5 8 -2 -2 9 -9 11 -10 17 -2 17 6 0 11 4 11 10 0 5 -6 9 -12 7 -7 -1
-12 4 -11 11 4 15 -2 15 -28 2 -14 -8 -19 -7 -19 1 0 9 -3 9 -14 0 -10 -9 -15
-8 -19 4 -4 8 -13 12 -22 9 -8 -3 -13 -9 -11 -13 3 -4 -9 -7 -25 -6 -16 0 -29
4 -29 8 0 5 -4 5 -10 2 -21 -13 -54 -14 -62 -2 -6 9 -8 9 -8 -1 0 -8 -5 -10
-12 -6 -10 6 -10 4 0 -8 10 -13 10 -17 -4 -22 -13 -5 -14 -9 -4 -21 8 -10 9
-15 1 -15 -7 0 -8 -8 -1 -26 6 -16 6 -23 0 -19 -5 3 -8 -9 -6 -30 1 -20 -2
-35 -8 -35 -6 0 -4 -5 4 -10 10 -6 11 -10 3 -10 -9 0 -10 -7 -3 -25 6 -17 6
-28 -3 -37 -17 -17 -15 -36 3 -49 13 -9 12 -10 -2 -5 -10 3 -20 1 -23 -4 -4
-6 -2 -10 3 -10 5 0 6 -19 3 -42 -4 -24 -6 -58 -6 -75 1 -18 -4 -33 -9 -33 -7
0 -8 -3 -1 -8 6 -4 11 -17 11 -30 1 -16 -2 -20 -10 -13 -8 7 -11 3 -11 -15 1
-14 8 -30 16 -35 11 -7 10 -9 -5 -9 -16 0 -17 -2 -5 -17 8 -9 9 -14 3 -10 -8
5 -11 -11 -10 -53 2 -32 0 -57 -4 -55 -9 6 -7 -39 2 -46 13 -8 -2 -40 -16 -32
-6 3 -6 1 2 -8 15 -16 16 -33 1 -23 -7 4 -7 -1 1 -16 11 -21 10 -22 -6 -16
-17 7 -17 6 0 -13 13 -14 14 -21 5 -27 -8 -5 -10 -3 -4 6 5 9 4 11 -4 6 -9 -6
-9 -11 0 -22 9 -11 8 -14 -2 -14 -12 0 -12 -2 0 -9 10 -6 10 -10 1 -16 -9 -6
-9 -10 1 -16 12 -7 12 -9 0 -9 -11 0 -11 -3 -1 -15 7 -8 8 -15 3 -15 -13 0
-12 -53 1 -62 8 -5 8 -8 0 -8 -7 0 -15 -7 -18 -16 -3 -8 -2 -13 2 -10 4 2 8
-4 8 -15 0 -10 -4 -19 -9 -19 -4 0 -5 -6 -1 -12 12 -19 12 -48 1 -55 -6 -3 -7
-1 -3 5 5 8 1 10 -9 5 -13 -4 -14 -8 -4 -14 7 -4 14 -15 15 -23 1 -9 -2 -14
-7 -10 -5 3 -9 -4 -9 -16 0 -12 4 -19 9 -15 6 3 8 -4 5 -17 -3 -13 -6 -34 -7
-48 0 -14 -5 -28 -11 -32 -7 -5 -6 -8 3 -8 11 0 11 -3 1 -15 -7 -8 -9 -15 -4
-15 5 0 9 -20 9 -44 0 -34 -3 -42 -15 -38 -12 4 -13 2 -2 -9 14 -16 16 -33 2
-24 -6 3 -7 -1 -4 -9 3 -9 11 -13 17 -9 6 4 7 1 3 -6 -5 -7 -15 -10 -25 -7
-13 5 -13 3 2 -8 12 -9 14 -16 8 -21 -6 -3 -11 -12 -11 -18 0 -7 4 -6 10 3 5
8 10 10 10 4 0 -5 -5 -15 -12 -22 -9 -9 -9 -12 0 -12 7 0 12 -5 12 -11 0 -5
-6 -7 -12 -3 -8 5 -7 0 2 -11 8 -10 10 -16 3 -12 -6 4 -13 1 -16 -5 -6 -19 4
-39 16 -31 6 3 4 -3 -4 -14 -11 -16 -13 -38 -9 -87 3 -36 3 -66 0 -66 -10 0 2
-85 14 -92 7 -5 3 -8 -9 -8 -17 0 -17 -2 -5 -10 11 -7 11 -10 2 -10 -7 0 -10
-5 -7 -10 4 -6 10 -8 14 -6 4 3 7 -6 7 -20 0 -16 -4 -23 -13 -20 -17 7 -16 1
3 -18 9 -10 11 -16 4 -16 -7 0 -6 -6 4 -15 8 -9 13 -26 10 -41 -3 -16 -1 -23
6 -19 9 6 15 -16 10 -40 -1 -5 1 -7 5 -3 4 4 13 1 20 -5 10 -9 10 -15 1 -26
-8 -11 -8 -13 1 -8 8 5 21 -5 35 -27 13 -20 29 -36 36 -36 7 0 15 -7 18 -15 4
-8 11 -12 17 -8 6 4 8 0 4 -11 -4 -10 -3 -15 3 -11 5 3 15 1 22 -5 60 -50 68
-55 91 -51 4 0 7 -7 7 -16 0 -9 3 -13 7 -10 3 4 15 -1 26 -10 15 -13 18 -14
12 -3 -4 8 2 5 14 -8 12 -12 31 -22 41 -22 11 0 20 -5 20 -11 0 -5 4 -8 9 -4
5 3 17 -2 25 -11 11 -10 16 -11 16 -3 0 7 9 2 20 -11 11 -13 20 -17 20 -10 0
7 7 5 18 -7 9 -10 13 -13 8 -6 -12 18 -1 16 18 -2 8 -8 25 -16 37 -18 20 -3
23 -10 24 -43 1 -21 -1 -43 -4 -49 -11 -20 -9 -75 3 -68 8 5 8 3 0 -8 -6 -8
-11 -33 -10 -56 1 -24 -1 -43 -5 -43 -3 0 -4 -14 -1 -30 3 -21 0 -30 -9 -30
-12 0 -12 -2 0 -9 10 -6 10 -10 1 -16 -8 -5 -6 -13 7 -28 13 -16 14 -18 2 -9
-14 11 -17 9 -17 -15 0 -16 5 -34 12 -42 8 -11 8 -13 -1 -8 -8 5 -12 -11 -15
-54 -1 -33 0 -63 4 -65 4 -3 5 -11 2 -19 -4 -8 -11 -12 -18 -8 -6 4 -5 -1 3
-10 7 -9 10 -17 6 -17 -4 0 -2 -6 4 -14 10 -12 8 -14 -11 -9 -13 3 -19 1 -12
-4 16 -12 24 -42 14 -48 -5 -3 -6 -13 -3 -22 4 -10 2 -14 -4 -10 -5 3 -10 0
-10 -8 0 -8 4 -12 9 -9 4 3 8 0 8 -5 0 -6 -3 -11 -8 -11 -4 0 -7 -26 -6 -57 1
-32 -4 -64 -10 -72 -8 -12 -8 -13 2 -7 9 6 12 3 10 -10 -2 -11 -7 -22 -12 -25
-5 -4 -5 -13 0 -20 11 -19 13 -49 2 -55 -4 -3 -8 -10 -8 -15 0 -6 6 -7 13 -3
9 6 9 4 -1 -8 -7 -9 -13 -33 -14 -54 0 -22 -5 -45 -11 -51 -12 -17 5 -17 23
-1 8 7 7 4 -3 -8 -9 -11 -14 -24 -10 -28 4 -4 1 -11 -7 -16 -12 -8 -12 -10 -1
-10 10 0 11 -3 3 -13 -7 -8 -7 -18 -2 -27 5 -9 5 -19 -2 -27 -8 -10 -7 -13 3
-13 10 0 10 -3 1 -12 -9 -9 -9 -15 1 -27 10 -12 9 -13 -2 -6 -11 6 -13 4 -8
-8 3 -10 2 -17 -3 -17 -6 0 -10 -5 -10 -11 0 -5 4 -8 9 -4 5 3 12 1 16 -5 3
-5 2 -10 -3 -10 -5 0 -12 -9 -15 -20 -3 -11 -1 -18 3 -15 19 12 19 -15 0 -28
-11 -7 -17 -17 -12 -21 4 -4 3 -7 -3 -6 -21 5 -36 0 -30 -10 3 -6 1 -10 -4
-10 -6 0 -11 5 -11 11 0 8 -5 8 -15 -1 -8 -7 -15 -9 -15 -4 0 4 -5 3 -11 -3
-6 -6 -18 -9 -27 -6 -10 4 -13 2 -8 -5 5 -8 2 -10 -8 -6 -9 3 -16 2 -16 -4 0
-5 -14 -8 -31 -6 -16 2 -27 0 -24 -5 3 -6 -8 -6 -27 0 -43 12 -48 11 -19 -5
20 -11 21 -14 7 -19 -10 -4 -15 -3 -12 2 6 9 -64 8 -80 -1 -5 -3 -17 -4 -26
-3 -10 2 -18 -1 -18 -7 0 -6 -7 -4 -17 3 -14 12 -16 12 -8 0 6 -11 3 -13 -13
-9 -12 4 -20 2 -16 -3 3 -5 0 -9 -5 -9 -6 0 -11 6 -12 13 0 8 -2 8 -6 -2 -4
-10 -7 -11 -13 -1 -5 8 -13 9 -21 4 -8 -5 -27 -9 -44 -10 -16 -1 -48 -3 -70
-5 -22 -2 -46 0 -52 4 -6 4 -15 2 -19 -4 -5 -8 -3 -9 7 -4 11 6 12 5 2 -5 -11
-12 -15 -11 -28 6 -11 14 -14 15 -9 3 3 -10 0 -20 -7 -25 -8 -4 -10 -3 -5 4 7
12 1 15 -29 15 -29 0 -36 -3 -31 -11 3 -5 -1 -9 -8 -9 -8 0 -12 6 -9 13 2 6
-1 15 -7 19 -6 3 -9 1 -8 -6 4 -16 -41 -19 -61 -5 -11 8 -13 8 -7 -2 4 -6 2
-12 -3 -12 -6 0 -11 5 -11 10 0 6 -5 10 -11 10 -5 0 -8 -4 -5 -8 3 -5 -1 -9
-9 -9 -8 0 -12 4 -10 8 3 3 -4 9 -14 12 -15 3 -18 1 -14 -12 4 -14 3 -14 -9
-1 -7 8 -29 15 -48 15 -19 0 -38 5 -42 10 -5 6 -8 5 -8 -3 0 -8 -5 -10 -12 -5
-14 8 -19 9 -56 11 -15 1 -21 6 -16 14 5 7 3 8 -7 2 -21 -13 -39 -14 -39 -2 0
7 -5 6 -14 -1 -10 -9 -16 -9 -21 -1 -4 6 -13 9 -20 6 -8 -3 -19 2 -25 9 -9 10
-17 12 -30 5 -11 -6 -21 -5 -28 2 -7 7 -12 8 -12 4 0 -5 -12 -1 -26 9 -18 11
-24 13 -19 4 6 -11 5 -12 -6 -1 -7 6 -21 12 -31 12 -10 0 -18 5 -18 10 0 6 -5
10 -11 10 -5 0 -8 -4 -5 -8 3 -5 -1 -9 -8 -9 -8 0 -12 6 -9 13 2 6 -1 15 -8
20 -8 5 -10 3 -4 -6 5 -9 4 -11 -4 -6 -9 6 -9 11 0 22 9 12 9 13 -2 9 -10 -4
-15 1 -15 14 0 11 5 17 10 14 5 -4 6 -1 0 8 -12 19 -12 72 1 81 7 5 6 8 -1 8
-7 0 -11 16 -10 40 1 22 -3 40 -8 40 -6 0 -4 5 4 10 13 8 12 10 -3 10 -10 0
-15 5 -12 10 4 6 12 7 18 3 7 -3 4 3 -6 15 -11 12 -16 26 -11 33 12 19 14 60
3 54 -5 -4 -9 -1 -9 4 0 6 6 11 13 12 10 0 10 2 0 6 -7 2 -13 13 -13 24 0 10
6 19 13 20 10 0 10 2 0 6 -9 3 -13 27 -13 71 0 47 -3 63 -10 52 -6 -9 -10 -10
-10 -3 0 6 5 15 11 19 6 3 8 17 4 31 -3 14 -2 22 2 20 5 -3 9 3 9 13 0 12 -6
17 -20 14 -17 -3 -17 -1 5 23 13 15 17 22 8 15 -14 -10 -16 -6 -18 34 0 26 -4
50 -7 55 -3 5 0 9 6 9 6 0 8 5 4 12 -4 6 -8 38 -9 70 -1 32 -5 61 -8 65 -4 3
-2 12 4 20 9 9 8 13 0 13 -6 0 -11 5 -11 11 0 5 6 7 13 3 8 -5 8 -2 -2 9 -8
11 -9 17 -3 17 13 0 4 31 -12 42 -7 5 -3 8 8 8 20 0 20 0 0 16 -15 13 -16 15
-2 10 12 -3 15 -1 11 9 -3 8 -9 13 -13 10 -5 -3 -11 -1 -14 4 -4 5 -1 13 5 17
8 5 9 3 4 -6 -5 -8 -4 -11 2 -7 5 3 8 21 6 39 -2 18 -4 39 -5 46 -1 6 -6 12
-12 12 -6 0 -5 4 2 9 17 11 17 21 0 32 -7 5 -8 9 -3 9 6 0 10 11 10 25 0 14
-3 25 -7 25 -8 0 -5 21 6 39 6 9 5 12 -2 7 -6 -4 -11 1 -11 11 0 10 -2 29 -4
43 -2 14 0 35 5 47 4 14 3 25 -4 29 -7 5 -8 3 -3 -6 5 -8 4 -11 -3 -6 -6 4 -9
13 -6 21 4 8 9 13 14 10 4 -2 5 7 2 20 -2 14 -9 25 -16 25 -6 0 -4 5 4 10 12
8 12 10 1 10 -11 0 -11 3 0 16 10 13 10 17 -2 26 -11 7 -11 11 -1 15 6 2 10 8
7 13 -3 5 3 7 12 6 10 -2 21 2 25 8 5 7 8 7 8 -3 0 -10 6 -10 26 4 15 9 23 12
20 6 -4 -6 -3 -11 3 -11 5 0 11 5 13 12 3 7 18 13 34 13 19 0 28 5 26 15 -3
11 0 11 14 -1 10 -8 15 -9 12 -4 -10 16 16 45 31 35 8 -5 20 -1 32 11 11 11
26 19 35 19 10 0 14 6 10 15 -3 8 -2 14 2 13 21 -4 76 34 65 46 -4 3 1 6 10 6
9 0 17 5 17 11 0 5 5 7 10 4 6 -4 10 -3 9 2 -3 17 1 33 9 32 19 -3 25 2 12 11
-13 8 -13 10 2 10 17 0 41 32 33 44 -3 3 -2 4 1 2 11 -8 32 18 26 33 -4 10 -1
12 8 6 10 -6 12 -4 7 8 -3 9 0 18 9 21 9 3 12 11 8 18 -5 7 -2 9 8 6 11 -5 14
0 12 19 -2 18 1 23 12 19 11 -4 13 1 10 19 -3 14 -2 25 2 25 4 0 13 9 20 21 8
12 9 18 3 15 -7 -4 -8 -1 -5 8 3 9 10 16 14 16 4 0 11 7 14 16 6 15 4 15 -11
3 -17 -13 -17 -13 0 7 9 11 17 29 17 40 0 11 5 25 12 32 7 7 9 12 4 12 -4 0 0
7 9 16 12 12 13 19 4 30 -9 11 -9 14 1 14 7 0 10 7 6 15 -3 10 1 15 12 15 10
0 13 3 7 8 -14 10 -18 35 -5 27 7 -4 9 2 4 21 -5 20 -4 25 6 19 9 -6 10 -3 1
13 -9 17 -8 23 6 31 12 7 14 10 4 11 -9 0 -10 4 -4 13 6 6 10 37 9 69 -1 31 2
54 7 51 4 -2 5 -8 2 -13 -3 -5 -2 -11 3 -14 4 -2 8 6 8 20 0 13 -5 24 -10 24
-6 0 -5 5 2 12 14 14 16 32 3 23 -6 -3 -8 4 -5 17 3 13 6 33 7 46 1 12 6 22
12 22 6 0 7 3 0 8 -5 4 -10 31 -10 60 0 28 5 52 10 52 6 0 3 5 -5 10 -12 8
-13 11 -1 19 8 5 9 11 3 15 -6 3 -9 18 -6 32 3 14 0 32 -6 39 -8 10 -8 15 1
20 8 6 8 10 -2 15 -7 5 -12 30 -12 64 0 33 -5 56 -11 56 -6 0 -4 5 4 10 10 6
11 10 3 10 -7 0 -13 7 -13 16 0 9 -5 12 -12 8 -7 -4 -8 -3 -4 5 4 6 12 8 18 5
6 -4 6 0 -1 13 -6 11 -7 23 -4 27 3 3 1 6 -5 6 -7 0 -12 12 -12 26 0 17 -4 23
-12 18 -9 -5 -9 -3 1 9 11 14 11 18 -2 23 -12 4 -13 12 -7 35 5 16 5 27 0 24
-4 -3 -16 7 -25 21 -9 15 -12 23 -6 20 6 -4 11 -2 11 3 0 6 -7 11 -15 11 -9 0
-12 6 -8 17 4 11 3 14 -5 9 -8 -5 -10 -2 -6 8 3 9 1 16 -6 16 -6 0 -9 4 -6 9
4 5 2 11 -3 13 -5 1 -11 10 -13 18 -2 8 -10 21 -18 28 -13 12 -13 13 0 7 8 -4
4 3 -10 15 -14 12 -19 19 -11 15 9 -5 8 1 -4 19 -17 25 -34 38 -19 14 4 -7 3
-8 -4 -4 -6 4 -9 13 -6 20 6 16 -23 49 -36 41 -5 -3 -7 3 -5 14 2 14 -1 18
-11 14 -9 -3 -14 1 -14 12 0 9 -4 13 -10 10 -5 -3 -10 -1 -10 5 0 6 -5 8 -12
4 -8 -5 -7 0 2 11 14 17 13 18 -8 13 -12 -4 -20 -3 -17 2 3 4 -4 19 -16 31
-11 13 -17 17 -13 9 4 -8 -3 -5 -15 8 -12 12 -28 19 -34 16 -7 -4 -9 -4 -5 0
9 11 -24 43 -39 38 -7 -2 -13 1 -13 8 0 7 -7 10 -16 6 -13 -5 -14 -3 -6 7 8
10 5 13 -14 15 -14 1 -32 9 -40 17 -9 8 -20 13 -25 10 -5 -4 -9 -1 -9 5 0 6
-4 9 -9 6 -5 -3 -12 1 -15 10 -5 13 -9 14 -21 4 -9 -7 -15 -8 -15 -2 0 5 -7
13 -16 16 -8 3 -12 2 -9 -4 3 -6 1 -10 -4 -10 -6 0 -11 8 -12 18 0 14 -2 14
-9 -3 -8 -19 -9 -19 -9 -1 -1 16 -3 17 -18 5 -14 -12 -16 -12 -11 1 4 12 -3
15 -33 15 -22 0 -39 -4 -39 -8 0 -5 -6 -5 -12 0 -21 13 -50 14 -42 2 3 -6 -5
-3 -20 6 -22 15 -27 15 -32 2 -4 -11 -13 -13 -40 -7 -19 4 -34 4 -34 -1 0 -4
-7 -6 -15 -3 -9 4 -15 0 -15 -7 0 -11 -3 -11 -10 1 -9 13 -12 13 -20 -2 -7
-10 -18 -14 -31 -11 -15 4 -27 0 -35 -12 -14 -18 -14 -18 -15 1 0 10 -3 13 -6
6 -2 -6 -9 -10 -14 -6 -5 3 -9 1 -9 -5 0 -6 -7 -8 -15 -5 -8 4 -15 1 -15 -6 0
-7 -7 -10 -15 -6 -9 3 -24 -3 -35 -14 -23 -23 -34 -26 -25 -7 4 6 -2 2 -12
-11 -15 -18 -21 -20 -32 -10 -9 8 -12 9 -7 1 3 -6 2 -14 -4 -18 -5 -3 -10 -1
-10 4 0 6 -4 11 -10 11 -5 0 -7 -7 -4 -15 4 -10 0 -15 -11 -15 -9 0 -13 -5 -9
-11 4 -7 -2 -6 -17 2 -23 12 -23 11 -9 -7 8 -10 10 -16 6 -12 -13 11 -67 -24
-62 -39 3 -7 2 -12 -2 -11 -13 2 -51 -17 -51 -27 0 -5 -5 -11 -12 -14 -7 -2
-9 1 -4 9 5 9 4 11 -3 6 -7 -4 -12 -14 -12 -22 0 -8 -4 -12 -10 -9 -6 3 -10
-4 -10 -16 0 -12 -3 -20 -6 -16 -7 7 -42 -26 -37 -35 2 -5 -3 -8 -11 -8 -8 0
-18 -5 -22 -12 -5 -7 -3 -8 7 -3 11 7 11 5 -1 -11 -8 -10 -23 -27 -35 -37 -11
-10 -13 -16 -5 -12 8 4 4 -2 -9 -13 -13 -11 -21 -24 -17 -31 4 -7 0 -11 -11
-11 -15 0 -16 -2 -3 -10 13 -8 13 -10 -2 -10 -11 0 -15 -7 -14 -24 2 -18 -1
-23 -12 -18 -10 3 -13 1 -8 -6 3 -6 1 -14 -5 -17 -5 -4 -8 -13 -5 -20 2 -7 -2
-16 -10 -19 -8 -3 -14 -11 -13 -18 3 -25 -1 -39 -10 -33 -5 3 -13 0 -17 -6 -4
-7 -3 -9 3 -6 6 4 14 0 17 -9 3 -8 2 -12 -4 -9 -6 4 -10 -5 -10 -20 0 -21 -4
-26 -16 -21 -14 5 -15 4 -4 -9 10 -12 10 -15 0 -15 -10 0 -10 -3 -1 -14 10
-11 8 -17 -6 -25 -14 -8 -15 -11 -3 -11 12 0 11 -3 -3 -11 -14 -8 -15 -14 -6
-31 6 -12 7 -18 1 -14 -14 9 -24 -24 -12 -39 7 -8 7 -15 2 -19 -6 -3 -9 -22
-8 -41 1 -19 -2 -35 -6 -35 -5 0 -8 5 -8 12 0 6 -3 8 -6 5 -4 -4 -1 -13 6 -22
10 -12 10 -15 -1 -15 -11 0 -11 -2 1 -10 10 -6 11 -10 3 -10 -7 0 -13 -5 -13
-11 0 -5 6 -7 13 -3 9 6 9 4 1 -7 -15 -20 -16 -61 -1 -52 9 5 9 3 1 -8 -6 -8
-10 -35 -9 -61 1 -31 -2 -45 -9 -42 -6 3 -2 -2 8 -10 11 -9 14 -16 8 -16 -7 0
-12 -9 -12 -20 0 -11 6 -20 13 -20 8 0 7 -4 -3 -10 -13 -9 -13 -11 0 -20 12
-8 12 -10 1 -10 -10 0 -11 -3 -2 -14 9 -11 9 -15 -1 -19 -10 -4 -10 -8 2 -16
8 -6 10 -11 5 -11 -6 0 -11 -13 -10 -29 0 -20 4 -27 14 -23 10 4 11 1 4 -14
-12 -23 -6 -47 10 -38 8 5 8 2 0 -7 -7 -7 -13 -19 -13 -27 0 -8 5 -10 13 -6 8
5 8 2 -2 -9 -9 -11 -10 -17 -2 -17 13 0 10 -22 -4 -32 -5 -4 -1 -8 10 -8 17 0
17 -2 5 -10 -13 -9 -13 -10 0 -10 12 0 12 -2 2 -9 -11 -6 -10 -10 4 -15 16 -6
16 -8 4 -16 -11 -7 -11 -10 -2 -10 7 0 12 -6 11 -12 -3 -29 2 -49 11 -43 6 3
7 -1 4 -10 -4 -8 -1 -22 6 -30 9 -11 9 -15 1 -15 -9 0 -8 -6 1 -22 7 -13 11
-26 10 -30 -1 -5 2 -8 7 -8 6 0 8 -9 6 -20 -2 -11 0 -18 6 -15 5 4 9 -3 9 -15
0 -14 4 -19 12 -14 9 5 9 3 -1 -9 -11 -14 -11 -18 3 -23 9 -3 13 -10 10 -15
-3 -5 0 -9 7 -9 7 0 9 -8 6 -21 -4 -15 -2 -18 7 -10 9 7 12 4 13 -12 1 -12 8
-26 16 -32 8 -5 12 -16 9 -24 -3 -8 0 -11 7 -7 6 4 11 2 11 -4 0 -6 7 -18 15
-27 8 -8 12 -20 8 -26 -4 -6 -1 -8 8 -5 8 3 20 -1 27 -8 7 -8 10 -14 6 -14 -3
0 -1 -7 6 -15 11 -13 15 -13 23 -3 6 9 7 8 3 -5 -3 -10 0 -25 8 -33 17 -17 30
-19 20 -2 -4 7 -3 8 4 4 6 -4 9 -13 5 -21 -3 -11 2 -15 17 -15 15 0 20 -4 16
-15 -3 -8 -2 -14 2 -14 15 2 52 -14 47 -20 -2 -4 1 -8 8 -9 30 -2 48 -9 60
-22 10 -12 9 -12 -8 0 -17 12 -18 12 -7 0 13 -15 17 -16 48 -19 9 -1 12 -6 8
-13 -4 -7 -4 -10 1 -6 4 4 16 3 26 -3 14 -7 19 -6 20 3 0 10 2 10 6 0 2 -6 9
-10 14 -6 5 3 9 0 9 -7 0 -7 3 -9 6 -6 4 3 15 2 25 -4 14 -7 19 -6 20 3 0 10
2 10 6 1 2 -7 9 -13 14 -13 6 0 7 6 4 13 -4 6 1 3 10 -8 9 -11 21 -20 28 -21
18 -1 64 -23 51 -23 -17 -1 -25 -29 -12 -37 6 -4 8 -3 4 4 -3 6 -2 13 3 16 5
3 7 -9 4 -27 -2 -17 -4 -38 -5 -44 -1 -7 -6 -13 -12 -13 -5 0 -2 -6 9 -13 14
-11 15 -16 5 -22 -9 -6 -11 -4 -5 6 5 8 4 10 0 6 -14 -12 -15 -39 -3 -60 7
-14 7 -17 -1 -13 -6 4 -11 3 -11 -3 0 -5 5 -13 10 -16 8 -5 7 -11 -1 -21 -9
-11 -9 -17 0 -28 7 -8 8 -17 3 -20 -5 -3 -9 -30 -8 -61 0 -30 -3 -55 -8 -55
-5 0 -3 -7 4 -15 8 -10 9 -15 1 -15 -7 0 -8 -8 0 -27 7 -19 7 -28 -2 -34 -16
-9 -20 -37 -8 -45 14 -8 11 -44 -3 -44 -10 0 -9 -3 1 -9 9 -6 10 -11 2 -15 -7
-4 -7 -15 -1 -31 6 -16 6 -27 -1 -31 -8 -4 -7 -10 0 -17 14 -14 14 -27 0 -27
-5 0 -7 5 -3 12 4 7 3 8 -4 4 -6 -4 -9 -13 -6 -21 4 -8 10 -12 15 -9 5 3 6 -2
3 -10 -3 -9 -11 -13 -18 -9 -6 3 -2 -4 8 -16 19 -21 19 -21 1 -15 -14 6 -16 4
-10 -6 9 -14 13 -80 5 -80 -8 0 -4 -85 5 -99 6 -10 4 -12 -4 -7 -15 10 -11
-25 4 -36 6 -5 6 -8 -1 -8 -7 0 -11 -14 -9 -35 1 -20 -3 -35 -9 -35 -6 0 -4
-5 4 -10 8 -5 11 -10 6 -10 -5 0 -2 -8 5 -18 10 -13 8 -12 -11 3 l-24 20 17
-27 c10 -16 13 -29 7 -33 -6 -3 -10 -13 -10 -21 0 -8 3 -13 8 -11 4 3 7 -5 7
-18 0 -16 -4 -21 -15 -17 -13 5 -13 3 -1 -11 7 -9 9 -17 4 -17 -5 0 -9 -10 -8
-23 2 -13 8 -21 16 -19 10 3 9 -2 -3 -15 -12 -13 -14 -23 -6 -36 5 -10 7 -21
4 -24 -3 -4 -6 -1 -6 7 0 10 -4 10 -17 -1 -11 -10 -14 -10 -9 -1 6 10 -5 17
-19 10 -2 -2 -11 6 -20 17 -9 11 -14 13 -10 5 4 -8 -3 -3 -15 12 -12 16 -27
25 -35 21 -9 -3 -15 1 -15 10 0 9 -5 19 -12 23 -7 4 -8 3 -4 -4 5 -8 2 -10 -8
-6 -9 3 -13 11 -9 17 4 6 0 8 -10 4 -10 -4 -17 -1 -17 6 0 7 -16 22 -35 35
-19 12 -34 28 -32 35 1 7 -6 11 -17 9 -11 -2 -15 1 -11 7 3 7 -3 11 -15 11
-12 0 -18 5 -15 10 3 5 1 10 -5 10 -6 0 -8 5 -4 12 4 6 3 8 -4 4 -6 -3 -15 1
-20 10 -5 9 -13 17 -18 17 -5 1 -8 5 -7 10 2 4 -4 7 -13 7 -8 0 -13 4 -10 8 2
4 -9 14 -25 21 -16 7 -29 19 -29 26 0 7 -7 16 -16 19 -8 3 -12 11 -9 16 4 6 1
9 -6 8 -7 -2 -18 7 -24 19 -7 13 -15 20 -18 16 -4 -3 -7 2 -7 11 0 12 -5 16
-14 13 -10 -4 -13 -1 -9 9 3 7 0 14 -7 14 -6 0 -8 4 -5 10 4 6 -1 7 -11 3 -12
-4 -15 -3 -10 5 4 7 1 15 -8 18 -9 3 -14 10 -11 14 3 4 -2 10 -10 14 -8 3 -15
15 -15 26 0 11 -7 20 -15 20 -9 0 -28 20 -44 45 -15 24 -31 41 -35 38 -4 -4
-4 0 0 10 4 11 0 19 -11 23 -13 6 -14 9 -3 16 9 7 7 8 -9 5 -20 -4 -21 -3 -12
15 8 15 8 19 0 14 -6 -4 -11 0 -11 8 0 9 -5 16 -11 16 -5 0 -7 5 -4 10 3 5 -2
10 -11 10 -10 0 -14 3 -11 7 4 3 -1 12 -11 20 -9 8 -11 12 -4 8 6 -3 12 -2 12
3 0 6 -7 13 -16 16 -9 4 -14 13 -10 22 3 8 2 12 -4 9 -6 -3 -10 1 -10 10 0 9
-4 14 -9 10 -6 -3 -8 4 -6 15 2 13 -1 20 -11 20 -8 0 -14 10 -14 25 0 14 -6
28 -14 31 -8 3 -12 13 -8 26 3 13 1 19 -5 15 -6 -4 -15 5 -22 19 -7 17 -8 23
0 19 13 -8 -12 37 -26 47 -5 4 -6 8 -2 8 5 0 1 7 -7 16 -9 8 -14 20 -11 25 4
5 0 9 -7 9 -9 0 -9 3 2 10 12 7 12 10 1 10 -8 0 -11 6 -7 16 3 8 2 12 -4 9 -6
-3 -10 5 -10 18 0 14 -6 27 -14 30 -10 4 -13 15 -10 32 3 20 1 25 -8 19 -10
-6 -9 -3 1 9 11 14 11 18 -3 23 -9 3 -16 10 -16 16 0 5 6 6 13 2 6 -4 3 3 -8
16 -13 15 -15 21 -5 16 13 -7 13 -6 0 6 -8 7 -15 21 -16 31 -2 51 -4 58 -17
51 -8 -5 -8 -2 2 9 8 11 9 17 3 17 -7 0 -9 7 -5 17 5 13 2 15 -13 10 -18 -7
-18 -6 1 9 20 15 20 15 1 30 -11 8 -14 14 -8 14 9 0 10 5 3 18 -5 9 -10 29
-10 45 -5 73 -6 77 -19 72 -8 -3 -10 0 -5 8 12 19 12 37 1 37 -6 0 -5 6 2 15
10 12 10 15 0 15 -10 0 -10 3 0 15 9 10 9 15 1 15 -6 0 -11 5 -11 11 0 5 6 7
13 3 9 -6 9 -5 0 7 -6 8 -12 30 -14 49 -2 19 -8 42 -13 50 -9 12 -8 13 4 3 14
-10 15 -7 12 22 -3 23 -8 32 -16 28 -8 -5 -8 -3 0 8 12 16 17 62 6 55 -4 -2
-7 32 -6 77 1 54 5 81 12 80 6 -2 9 4 6 12 -4 8 -11 12 -18 8 -6 -3 -6 -1 2 8
15 17 16 53 0 43 -7 -4 -8 -3 -4 4 4 7 15 12 24 12 11 0 13 3 6 8 -14 9 -15
43 -1 60 6 8 6 12 -3 12 -10 0 -10 3 0 15 10 12 10 18 -1 32 -12 14 -12 16 0
8 11 -6 13 -4 8 9 -5 13 -3 17 6 13 15 -6 16 20 2 42 -5 10 -4 12 4 7 8 -5 10
0 7 20 -4 18 1 35 12 48 9 11 11 16 5 12 -7 -4 -13 -2 -13 3 0 6 5 11 11 11 8
0 7 6 -2 17 -10 11 -10 14 -1 9 8 -5 12 1 12 18 0 14 6 26 13 27 9 0 9 2 -1 6
-10 4 -9 9 5 19 17 13 17 14 -2 8 -17 -5 -18 -4 -5 8 9 7 15 20 15 28 0 8 6
21 15 28 8 8 9 11 3 7 -7 -3 -13 -1 -13 4 0 6 4 11 8 11 5 0 9 6 9 13 0 6 4
20 8 30 4 10 3 17 -4 17 -6 0 -3 9 7 20 9 11 20 30 23 43 3 12 11 21 16 20 6
-1 9 6 6 17 -3 13 0 20 8 20 11 0 11 2 -1 10 -8 5 -10 10 -5 10 6 0 16 9 23
21 10 16 11 24 1 35 -10 12 -9 13 6 8 13 -5 16 -4 11 4 -4 7 -3 12 3 12 6 0 7
7 4 17 -4 10 -2 14 4 10 12 -8 23 14 23 44 0 11 4 18 9 15 9 -6 24 28 24 56 0
9 4 16 10 15 6 -1 12 4 13 11 3 26 5 27 14 12 8 -11 9 -9 6 12 -3 17 1 28 10
32 8 3 14 15 14 26 0 12 5 18 10 15 6 -3 10 3 10 14 0 13 7 21 16 21 11 0 15
6 11 20 -3 11 -2 18 2 16 4 -3 13 -1 21 5 13 7 13 9 0 9 -10 0 -7 7 10 21 14
11 18 17 10 13 -12 -6 -13 -5 -3 8 7 8 10 18 6 22 -4 4 -1 5 7 2 9 -3 23 6 35
22 19 27 19 27 0 13 -11 -8 -3 1 17 21 21 19 35 38 30 43 -4 4 1 5 11 2 12 -5
16 -3 11 5 -4 6 1 17 11 25 11 7 16 13 12 13 -4 0 5 13 19 30 15 16 30 27 35
25 4 -3 10 4 14 15 3 11 11 20 16 20 6 0 7 5 3 12 -5 8 -2 9 10 5 10 -4 15 -3
11 3 -3 6 1 13 9 16 9 3 13 11 9 17 -4 6 2 8 15 5 19 -5 20 -4 11 14 -8 15 -8
19 0 14 14 -9 64 41 55 55 -4 7 1 7 16 -1 15 -8 20 -8 16 -1 -4 6 -1 11 6 11
9 0 9 3 -2 10 -13 8 -12 10 5 11 11 1 24 1 28 0 5 -1 6 3 3 8 -4 5 7 18 23 27
17 10 27 22 24 28 -4 5 1 7 11 3 10 -4 15 -3 11 3 -3 5 5 15 19 22 14 6 26 15
26 20 0 5 5 6 12 2 8 -5 9 -2 5 10 -4 10 -3 15 3 11 6 -3 10 -1 10 5 0 6 4 8
10 5 5 -3 10 -1 10 5 0 6 5 8 10 5 6 -3 10 -1 10 4 0 6 6 11 14 11 8 0 16 7
20 15 3 8 11 14 18 13 7 -2 12 2 11 9 -2 8 4 10 14 6 12 -5 14 -3 8 8 -4 8 -5
11 0 7 11 -10 47 11 40 22 -3 6 1 7 9 4 9 -4 18 1 22 10 3 9 10 14 14 11 5 -3
16 -2 25 1 13 5 14 8 3 15 -10 7 -9 9 4 9 9 0 22 8 28 18 10 15 11 15 6 -3 -5
-18 -4 -17 14 4 11 13 20 18 20 12 0 -6 5 -11 11 -11 5 0 8 4 5 9 -3 5 2 15
11 22 12 10 14 10 9 2 -4 -7 -2 -13 4 -13 6 0 13 7 17 16 5 13 7 13 14 2 7
-10 9 -9 9 5 0 10 4 16 10 12 5 -3 18 3 30 15 11 11 20 15 20 9 0 -8 4 -9 13
0 8 6 18 7 22 3 5 -4 5 1 2 11 -4 11 -3 16 4 12 6 -4 19 1 30 11 17 15 22 16
29 4 7 -12 10 -12 16 3 3 9 10 15 14 12 12 -7 41 6 35 15 -3 4 5 8 18 9 66 2
85 6 81 16 -3 6 9 12 28 13 18 2 37 7 42 12 6 6 15 5 25 -3 11 -9 13 -9 8 0
-4 6 -3 14 2 17 5 4 13 1 17 -5 3 -6 9 -7 13 -3 11 15 49 33 55 26 10 -9 37
-11 31 -2 -3 4 2 11 11 14 8 3 12 2 9 -4 -3 -5 3 -8 14 -7 11 0 18 4 15 8 -2
4 3 10 12 13 8 3 12 2 9 -4 -3 -6 -1 -10 4 -10 6 0 11 5 11 11 0 8 4 8 14 0
11 -9 16 -9 22 0 5 8 3 9 -6 4 -8 -5 -11 -4 -7 1 3 6 21 9 39 9 18 -1 41 2 50
7 10 5 19 4 24 -4 5 -7 3 -8 -6 -3 -9 6 -11 4 -5 -5 7 -11 10 -10 19 1 7 9 27
14 54 13 23 -1 45 2 48 7 7 12 24 11 24 -1z m1510 -940 c0 -5 -5 -10 -11 -10
-5 0 -7 5 -4 10 3 6 8 10 11 10 2 0 4 -4 4 -10z m0 -480 c0 -5 -5 -10 -11 -10
-5 0 -7 5 -4 10 3 6 8 10 11 10 2 0 4 -4 4 -10z m0 -480 c0 -5 -5 -10 -11 -10
-5 0 -7 5 -4 10 3 6 8 10 11 10 2 0 4 -4 4 -10z m-3310 -204 c0 -2 -8 -10 -17
-17 -16 -13 -17 -12 -4 4 13 16 21 21 21 13z m2331 -893 c13 -16 12 -17 -3 -4
-17 13 -22 21 -14 21 2 0 10 -8 17 -17z m-1631 -103 c0 -5 -5 -10 -11 -10 -5
0 -7 5 -4 10 3 6 8 10 11 10 2 0 4 -4 4 -10z m41 -5 c11 6 11 5 2 -5 -12 -14
-33 -6 -33 13 0 8 3 7 9 -2 5 -8 14 -10 22 -6z m-16 -544 c3 -5 2 -12 -3 -15
-5 -3 -9 1 -9 9 0 17 3 19 12 6z"/>
<path d="M2145 5290 c-3 -5 -1 -10 4 -10 6 0 11 5 11 10 0 6 -2 10 -4 10 -3 0
-8 -4 -11 -10z"/>
<path d="M3485 4750 c-3 -6 1 -7 9 -4 18 7 21 14 7 14 -6 0 -13 -4 -16 -10z"/>
<path d="M3413 4495 c0 -8 4 -12 9 -9 5 3 6 10 3 15 -9 13 -12 11 -12 -6z"/>
<path d="M4154 4276 c1 -8 5 -18 8 -22 4 -3 5 1 4 10 -1 8 -5 18 -8 22 -4 3
-5 -1 -4 -10z"/>
<path d="M4154 4036 c1 -8 5 -18 8 -22 4 -3 5 1 4 10 -1 8 -5 18 -8 22 -4 3
-5 -1 -4 -10z"/>
<path d="M4154 3916 c1 -8 5 -18 8 -22 4 -3 5 1 4 10 -1 8 -5 18 -8 22 -4 3
-5 -1 -4 -10z"/>
<path d="M2300 1020 c0 -5 5 -10 11 -10 5 0 7 5 4 10 -3 6 -8 10 -11 10 -2 0
-4 -4 -4 -10z"/>
<path d="M3820 750 c-9 -6 -10 -10 -3 -10 6 0 15 5 18 10 8 12 4 12 -15 0z"/>
</g>
</svg>
